# xmcd CD database file
#
# Track frame offsets:
#	150
#	18963
#	38442
#	57458
#	76528
#	100216
#	118750
#	142811
#
# Disc length: 2138 seconds
#
# Revision: 0
# Processed by: cddbd v1.5.2PL0 Copyright (c) Steve Scherf et al.
# Submitted via: CDex 1.70beta2
#
DISCID=55085808
DTITLE=Victor Manuelle - Una Navidad A Mi Estilo
DYEAR=2007
DGENRE=Salsa
TTITLE0=Lechon, Lechon, Lechon
TTITLE1=Yo me voy para mi tierra
TTITLE2=Los polvos del Sahara
TTITLE3=Amarren al puerco
TTITLE4=Navidad en mi barrio
TTITLE5=La cama cortita
TTITLE6=Son de parranda
TTITLE7=Yo traigo la parranda
EXTD=YEAR: 2007
EXTT0=
EXTT1=
EXTT2=
EXTT3=
EXTT4=
EXTT5=
EXTT6=
EXTT7=
PLAYORDER=
